<?xml version="1.0" encoding="utf-8"?>
<!-- Generator: Adobe Illustrator 27.6.1, SVG Export Plug-In . SVG Version: 6.00 Build 0)  -->
<svg version="1.1" id="Layer_1" xmlns="http://www.w3.org/2000/svg" xmlns:xlink="http://www.w3.org/1999/xlink" x="0px" y="0px"
	 width="48" height="48"
	 viewBox="0 0 500 500" style="enable-background:new 0 0 500 500;" xml:space="preserve">
<style type="text/css">
	.st0{fill:#FFFFFF;}
</style>
<path class="st0" d="M214.48,32.38l-182.43,91.3c-11.13,5.57-11.12,21.9,0.03,27.45l182.49,90.89
	c22.25,11.08,48.21,11.09,70.47,0.01l182.6-90.9c11.14-5.55,11.16-21.88,0.03-27.46l-182.42-91.3
	C262.9,21.21,236.82,21.21,214.48,32.38z"/>
<path class="st0" d="M467.66,348.68l-56.21-28.14l-126.41,62.93c-22.26,11.08-48.21,11.08-70.47-0.01L88.25,320.56l-56.2,28.13
	c-11.13,5.57-11.12,21.9,0.03,27.45l182.49,90.89c22.25,11.08,48.21,11.09,70.47,0.01l182.6-90.9
	C478.78,370.59,478.79,354.25,467.66,348.68z"/>
<path class="st0" d="M467.6,237.94l-56.21-28.14l-126.41,62.93c-22.26,11.08-48.21,11.08-70.47-0.01L88.19,209.82l-56.2,28.13
	c-11.13,5.57-11.12,21.9,0.03,27.45l182.49,90.89c22.25,11.08,48.21,11.09,70.47,0.01l182.6-90.9
	C478.71,259.85,478.73,243.51,467.6,237.94z"/>
</svg>
