<?xml version="1.0" encoding="UTF-8"?><svg id="Layer_1" xmlns="http://www.w3.org/2000/svg" viewBox="0 0 142 44"><defs><style>.cls-1{fill-rule:evenodd;}.cls-1,.cls-2{fill:#fff;}</style></defs><rect x="0" y="0" width="284" height="88" rx="6" ry="6"/><path class="cls-1" d="M98.2,14.52l3.52-3.52h27.28v18.48l-3.52,3.52h-27.28V14.52ZM112.74,31.15l2.04-.95h0l-1.66-2.67c.77-.51,1.32-1.26,1.65-2.24.33-.98.5-2.26.5-3.84,0-2.4-.41-4.18-1.23-5.34-.82-1.15-2.24-1.73-4.28-1.73s-3.46.58-4.29,1.74c-.82,1.16-1.24,2.94-1.24,5.34s.4,4.15,1.22,5.26c.81,1.11,2.25,1.66,4.31,1.66.55,0,.96-.04,1.21-.12l1.76,2.89ZM118.24,27.61c.42.51,1.19.77,2.31.77.46,0,1.14-.09,2.02-.26l-.1-1.72-1.62.06c-.49,0-.79-.13-.91-.4-.12-.26-.18-.8-.18-1.6v-4.36h2.73v-1.84h-2.73v-2.87h-2.14v2.87h-1.27v1.84h1.27v4.59c0,1.43.21,2.4.62,2.91ZM107.21,17.53c.46-.82,1.31-1.23,2.55-1.23s2.09.41,2.55,1.23c.45.82.68,2.13.68,3.94s-.22,3.09-.66,3.85c-.44.76-1.3,1.14-2.57,1.14s-2.13-.39-2.57-1.16c-.45-.77-.67-2.05-.67-3.85s.23-3.1.69-3.92Z"/><path class="cls-2" d="M12,15.57h4.97c1.34,0,2.34.27,3,.81.66.54.99,1.41.99,2.59,0,.78-.12,1.39-.37,1.84s-.64.82-1.18,1.11c1.25.48,1.87,1.5,1.87,3.04,0,2.47-1.39,3.71-4.17,3.71h-5.12v-13.1ZM16.86,17.4h-2.73v3.75h2.81c1.25,0,1.87-.64,1.87-1.93,0-1.21-.65-1.82-1.95-1.82ZM16.97,22.95h-2.85v3.88h2.89c.7,0,1.23-.15,1.58-.44.35-.29.53-.8.53-1.51s-.2-1.21-.61-1.5c-.41-.29-.92-.43-1.53-.43Z"/><path class="cls-2" d="M29.25,19.1h2.07v9.56h-2.07v-.59c-.93.54-1.79.8-2.58.8-1.31,0-2.19-.35-2.64-1.06-.45-.71-.67-1.95-.67-3.72v-4.99h2.08v5.01c0,1.15.1,1.92.29,2.31.19.4.64.59,1.34.59s1.32-.13,1.89-.38l.29-.11v-7.42Z"/><path class="cls-2" d="M33.84,17.48v-2.2h2.08v2.2h-2.08ZM33.84,28.66v-9.56h2.08v9.56h-2.08Z"/><path class="cls-2" d="M38.56,28.66v-13.54h2.08v13.54h-2.08Z"/><path class="cls-2" d="M48.43,20.88h-2.64v4.21c0,.78.06,1.29.17,1.55.11.26.41.38.88.38l1.57-.06.1,1.66c-.85.17-1.5.25-1.95.25-1.08,0-1.83-.25-2.23-.75-.4-.5-.6-1.43-.6-2.81v-4.44h-1.22v-1.78h1.22v-2.77h2.07v2.77h2.64v1.78Z"/><path class="cls-2" d="M53.59,19.1h2.05l1.51,7.78h.38l1.82-7.59h2.14l1.82,7.59h.38l1.49-7.78h2.07l-2.03,9.56h-3.31l-1.49-6.56-1.49,6.56h-3.31l-2.03-9.56Z"/><path class="cls-2" d="M69.03,17.48v-2.2h2.08v2.2h-2.08ZM69.03,28.66v-9.56h2.08v9.56h-2.08Z"/><path class="cls-2" d="M78.78,20.88h-2.64v4.21c0,.78.06,1.29.17,1.55.11.26.41.38.88.38l1.57-.06.1,1.66c-.85.17-1.5.25-1.95.25-1.08,0-1.83-.25-2.23-.75-.4-.5-.6-1.43-.6-2.81v-4.44h-1.22v-1.78h1.22v-2.77h2.07v2.77h2.64v1.78Z"/><path class="cls-2" d="M82.57,28.66h-2.08v-13.54h2.08v4.48c.94-.47,1.82-.71,2.62-.71,1.28,0,2.15.36,2.61,1.08.47.72.7,1.91.7,3.57v5.12h-2.08v-5.07c0-1.03-.11-1.77-.32-2.2-.22-.43-.68-.65-1.38-.65-.61,0-1.22.1-1.84.31l-.31.11v7.5Z"/></svg>