<?xml version="1.0" encoding="UTF-8"?>
<svg id="Layer_1" data-name="Layer 1" xmlns="http://www.w3.org/2000/svg" viewBox="0 0 252.1 30.41">
  <defs>
    <style>
      .cls-1 {
        fill: #fff;
        fill-rule: evenodd;
        stroke-width: 0px;
      }
    </style>
  </defs>
  <path class="cls-1" d="M164.2.44h30.3l-19.88,23.18h19.28v6.37h-34.07l19.88-23.18h-19.88s4.37-6.37,4.37-6.37ZM30.23,6.81H7.72v7.51h21.31v6.42H7.72v9.25H0V.44h34.59s-4.37,6.37-4.37,6.37ZM231.38,6.06l-6.13,11.98h12.21l-6.08-11.98ZM252.1,29.99h-8.55l-3.22-6.29h-17.98l-3.22,6.29h-8.5L226.11.44h10.42l15.54,29.55h.03ZM58.5,21.91c1.74,1.43,4.57,2.13,8.55,2.13h0c3.95,0,6.78-.73,8.52-2.13,1.74-1.43,2.62-3.69,2.62-6.73s-.86-5.25-2.6-6.68c-1.74-1.4-4.57-2.11-8.55-2.11s-6.84.7-8.55,2.08c-1.74,1.4-2.6,3.61-2.6,6.71s.86,5.3,2.6,6.73ZM81.35,26.53c-3.07,2.57-7.82,3.87-14.29,3.87h0c-6.5,0-11.25-1.27-14.32-3.85-3.04-2.57-4.57-6.39-4.57-11.41s1.53-8.78,4.57-11.33,7.85-3.82,14.32-3.82,11.23,1.27,14.29,3.85c3.07,2.57,4.57,6.32,4.57,11.31s-1.53,8.81-4.57,11.38ZM142.32,29.99h0ZM131.79,29.99h10.53l-11.88-9.04c5.48-.65,9.72-4.57,9.72-10.21,0-6.19-5.07-10.29-11.33-10.29h-23.75v29.55h7.72V6.81h13.9c2.62,0,5.72.36,5.72,4.24v.44c0,3.87-3.09,4.24-5.72,4.24h-12.71s17.8,14.27,17.8,14.27Z"/>
</svg>