<?xml version="1.0" encoding="UTF-8"?>
<svg id="a" width="178" height="78"  xmlns="http://www.w3.org/2000/svg" viewBox="0 0 88.59 38.89">
  <path d="M0,38.89l18.9-2.28h0l10.37-15.13-15.51-2.65L0,38.89ZM18.86,11.37l2.64-3.85C24.72,2.82,30.1,0,35.87,0h52.72l-2.64,3.85c-3.22,4.7-8.61,7.52-14.37,7.52H18.86ZM40.78,28.3l9.89-14.43h10.09l-8.98,13.1-11,1.33ZM55.13,26.57l8.71-12.7h10.09l-5.59,8.15c-1.4,2.05-3.64,3.4-6.13,3.7l-7.08.86h0ZM2.99,14.44l.39-.57h44.22l-10.17,14.84-10.97,1.32,7.1-10.36L2.99,14.44Z" fill="#fff" fill-rule="evenodd" stroke-width="0"/>
</svg>