<?xml version="1.0" encoding="UTF-8"?>
<svg id="Layer_1" xmlns="http://www.w3.org/2000/svg" version="1.1" viewBox="0 0 48 48">
  <!-- Generator: Adobe Illustrator 29.0.1, SVG Export Plug-In . SVG Version: 2.1.0 Build 192)  -->
  <defs>
    <style>
      .st0 {
        fill: #df9645;
      }
    </style>
  </defs>
  <path class="st0" d="M39.7,16.2c-1.9,0-3.5.7-4.8,1.8l-9.6-6.8c.4-.9.7-2,.7-3.1,0-4-3.2-7.2-7.2-7.2s-7.2,3.2-7.2,7.2,1.2,4.6,3.1,5.9l-6.1,18.3c-.2,0-.5,0-.7,0-4,0-7.2,3.2-7.2,7.2s3.2,7.2,7.2,7.2,7.2-3.2,7.2-7.2-1.2-4.6-3.1-5.9l6.1-18.3c.2,0,.4,0,.6,0,1.6,0,3-.5,4.2-1.3l10,7c-.2.7-.4,1.5-.4,2.3,0,4,3.2,7.2,7.2,7.2s7.2-3.2,7.2-7.2-3.2-7.2-7.2-7.2ZM7.8,44.3c-2.5,0-4.6-2.1-4.6-4.6s2.1-4.6,4.6-4.6,4.6,2.1,4.6,4.6-2.1,4.6-4.6,4.6ZM18.7,12.8c-2.5,0-4.6-2.1-4.6-4.6s2.1-4.6,4.6-4.6,4.6,2.1,4.6,4.6-2.1,4.6-4.6,4.6ZM39.7,28.1c-2.5,0-4.6-2.1-4.6-4.6s2.1-4.6,4.6-4.6,4.6,2.1,4.6,4.6-2.1,4.6-4.6,4.6Z"/>
</svg>