<?xml version="1.0" encoding="UTF-8"?>
<svg id="Layer_1" xmlns="http://www.w3.org/2000/svg" version="1.1" viewBox="0 0 48 48">
  <!-- Generator: Adobe Illustrator 29.0.1, SVG Export Plug-In . SVG Version: 2.1.0 Build 192)  -->
  <defs>
    <style>
      .st0 {
        fill: #fff;
      }
    </style>
  </defs>
  <path class="st0" d="M42.4,30.5l5.1,2.6c.7.3.7,1.3,0,1.6l-22.7,11.4c-.5.3-1.1.3-1.6,0L.5,34.7c-.4-.2-.6-.8-.4-1.2,0-.2.2-.3.4-.4l5.1-2.6,16,8c1.5.8,3.3.8,4.8,0l16-8h0ZM23.2.2c.5-.3,1.1-.3,1.6,0l22.7,11.4c.4.2.6.8.4,1.2,0,.2-.2.3-.4.4l-22.7,11.3c-.5.3-1.1.3-1.6,0L.5,13.1c-.4-.2-.6-.8-.4-1.2,0-.2.2-.3.4-.4L23.2.2Z"/>
  <path class="st0" d="M42.4,19.7l5.1,2.6c.7.3.7,1.3,0,1.6l-22.7,11.4c-.5.3-1.1.3-1.6,0L.5,23.9c-.4-.2-.6-.8-.4-1.2,0-.2.2-.3.4-.4l5.1-2.6,16,8c1.5.8,3.3.8,4.8,0l16-8Z"/>
</svg>